<?xml version="1.0" encoding="UTF-8" standalone="no"?>
<!DOCTYPE svg PUBLIC "-//W3C//DTD SVG 1.1//EN"
 "http://www.w3.org/Graphics/SVG/1.1/DTD/svg11.dtd">
<!-- Generated by graphviz version 2.40.1 (20161225.0304)
 -->
<!-- Title: UmlClassDiagram Pages: 1 -->
<svg width="228pt" height="238pt"
 viewBox="0.00 0.00 228.17 238.20" xmlns="http://www.w3.org/2000/svg" xmlns:xlink="http://www.w3.org/1999/xlink">
<g id="graph0" class="graph" transform="scale(1 1) rotate(0) translate(4 234.2)">
<title>UmlClassDiagram</title>
<polygon fill="#ffffff" stroke="transparent" points="-4,4 -4,-234.2 224.1676,-234.2 224.1676,4 -4,4"/>
<!-- 0 -->
<g id="node1" class="node">
<title>0</title>
<polygon fill="#f2f2f2" stroke="#000000" points="82.5838,-193.7 82.5838,-229.7 136.5838,-229.7 136.5838,-193.7 82.5838,-193.7"/>
<text text-anchor="middle" x="109.2444" y="-207.6" font-family="Times,serif" font-size="14.00" fill="#000000">Doc</text>
</g>
<!-- 1 -->
<g id="node2" class="node">
<title>1</title>
<polygon fill="#f2f2f2" stroke="#000000" points="12.4267,-120.7 12.4267,-156.7 100.7409,-156.7 100.7409,-120.7 12.4267,-120.7"/>
<text text-anchor="middle" x="56.5838" y="-134.6" font-family="Times,serif" font-size="14.00" fill="#000000">SampleDoc1</text>
</g>
<!-- 1&#45;&gt;0 -->
<g id="edge3" class="edge">
<title>1&#45;&gt;0</title>
<path fill="none" stroke="#000000" d="M69.6849,-156.7449C72.4878,-160.6056 75.5622,-164.84 78.7215,-169.1916"/>
<polygon fill="none" stroke="#000000" points="70.3275,-175.5021 96.4497,-193.6096 87.3211,-163.1643 70.3275,-175.5021"/>
</g>
<!-- 1struct0 -->
<g id="node3" class="node">
<title>1struct0</title>
<polygon fill="#f2f2f2" stroke="#000000" points="0,-.5 0,-83.7 101.1676,-83.7 101.1676,-.5 0,-.5"/>
<text text-anchor="middle" x="50.5838" y="-67.1" font-family="Times,serif" font-size="14.00" fill="#000000">&lt;&lt;struct&gt;&gt;</text>
<text text-anchor="middle" x="50.5838" y="-50.3" font-family="Times,serif" font-size="14.00" fill="#000000">Struct</text>
<polyline fill="none" stroke="#000000" points="0,-42.1 101.1676,-42.1 "/>
<text text-anchor="start" x="8" y="-25.5" font-family="Times,serif" font-size="14.00" fill="#000000">mem1: uint256</text>
<text text-anchor="start" x="8" y="-8.7" font-family="Times,serif" font-size="14.00" fill="#000000">mem2: uint256</text>
</g>
<!-- 1struct0&#45;&gt;1 -->
<g id="edge1" class="edge">
<title>1struct0&#45;&gt;1</title>
<path fill="none" stroke="#000000" d="M53.1806,-83.9083C53.6919,-92.1402 54.2191,-100.6282 54.7013,-108.3925"/>
<polygon fill="#000000" stroke="#000000" points="54.7158,-108.626 59.0801,-114.3664 55.4598,-120.6029 51.0955,-114.8624 54.7158,-108.626"/>
</g>
<!-- 2 -->
<g id="node4" class="node">
<title>2</title>
<polygon fill="#f2f2f2" stroke="#000000" points="118.4267,-120.7 118.4267,-156.7 206.7409,-156.7 206.7409,-120.7 118.4267,-120.7"/>
<text text-anchor="middle" x="162.5838" y="-134.6" font-family="Times,serif" font-size="14.00" fill="#000000">SampleDoc2</text>
</g>
<!-- 2&#45;&gt;0 -->
<g id="edge4" class="edge">
<title>2&#45;&gt;0</title>
<path fill="none" stroke="#000000" d="M149.4827,-156.7449C146.6798,-160.6056 143.6054,-164.84 140.4461,-169.1916"/>
<polygon fill="none" stroke="#000000" points="131.8465,-163.1643 122.7179,-193.6096 148.8401,-175.5021 131.8465,-163.1643"/>
</g>
<!-- 2struct0 -->
<g id="node5" class="node">
<title>2struct0</title>
<polygon fill="#f2f2f2" stroke="#000000" points="119,-.5 119,-83.7 220.1676,-83.7 220.1676,-.5 119,-.5"/>
<text text-anchor="middle" x="169.5838" y="-67.1" font-family="Times,serif" font-size="14.00" fill="#000000">&lt;&lt;struct&gt;&gt;</text>
<text text-anchor="middle" x="169.5838" y="-50.3" font-family="Times,serif" font-size="14.00" fill="#000000">Struct</text>
<polyline fill="none" stroke="#000000" points="119,-42.1 220.1676,-42.1 "/>
<text text-anchor="start" x="127" y="-25.5" font-family="Times,serif" font-size="14.00" fill="#000000">mem1: uint256</text>
<text text-anchor="start" x="127" y="-8.7" font-family="Times,serif" font-size="14.00" fill="#000000">mem2: uint256</text>
</g>
<!-- 2struct0&#45;&gt;2 -->
<g id="edge2" class="edge">
<title>2struct0&#45;&gt;2</title>
<path fill="none" stroke="#000000" d="M166.5542,-83.9083C165.9577,-92.1402 165.3426,-100.6282 164.78,-108.3925"/>
<polygon fill="#000000" stroke="#000000" points="164.7626,-108.6343 168.3184,-114.9077 163.8952,-120.6029 160.3393,-114.3295 164.7626,-108.6343"/>
</g>
</g>
</svg>
