<?xml version="1.0" encoding="UTF-8" standalone="no"?>
<!DOCTYPE svg PUBLIC "-//W3C//DTD SVG 1.1//EN"
 "http://www.w3.org/Graphics/SVG/1.1/DTD/svg11.dtd">
<!-- Generated by graphviz version 2.40.1 (20161225.0304)
 -->
<!-- Title: UmlClassDiagram Pages: 1 -->
<svg width="418pt" height="246pt"
 viewBox="0.00 0.00 417.86 246.00" xmlns="http://www.w3.org/2000/svg" xmlns:xlink="http://www.w3.org/1999/xlink">
<g id="graph0" class="graph" transform="scale(1 1) rotate(0) translate(4 242)">
<title>UmlClassDiagram</title>
<polygon fill="#ffffff" stroke="transparent" points="-4,4 -4,-242 413.8622,-242 413.8622,4 -4,4"/>
<!-- 0 -->
<g id="node1" class="node">
<title>0</title>
<polygon fill="#f2f2f2" stroke="#000000" points="149.4984,-137.5 149.4984,-237.5 260.3638,-237.5 260.3638,-137.5 149.4984,-137.5"/>
<text text-anchor="middle" x="204.9311" y="-220.9" font-family="Times,serif" font-size="14.00" fill="#000000">Doc</text>
<polyline fill="none" stroke="#000000" points="149.4984,-212.7 260.3638,-212.7 "/>
<text text-anchor="start" x="157.4984" y="-196.1" font-family="Times,serif" font-size="14.00" fill="#000000">Internal:</text>
<text text-anchor="start" x="157.4984" y="-179.3" font-family="Times,serif" font-size="14.00" fill="#000000"> &#160;&#160;policy: address</text>
<text text-anchor="start" x="157.4984" y="-162.5" font-family="Times,serif" font-size="14.00" fill="#000000">Public:</text>
<text text-anchor="start" x="157.4984" y="-145.7" font-family="Times,serif" font-size="14.00" fill="#000000"> &#160;&#160;value: uint256</text>
</g>
<!-- 1 -->
<g id="node2" class="node">
<title>1</title>
<polygon fill="#f2f2f2" stroke="#000000" points="0,-.5 0,-100.5 195.8622,-100.5 195.8622,-.5 0,-.5"/>
<text text-anchor="middle" x="97.9311" y="-83.9" font-family="Times,serif" font-size="14.00" fill="#000000">SampleDoc1</text>
<polyline fill="none" stroke="#000000" points="0,-75.7 195.8622,-75.7 "/>
<text text-anchor="start" x="8" y="-59.1" font-family="Times,serif" font-size="14.00" fill="#000000">Internal:</text>
<text text-anchor="start" x="8" y="-42.3" font-family="Times,serif" font-size="14.00" fill="#000000"> &#160;&#160;authority: address</text>
<text text-anchor="start" x="8" y="-25.5" font-family="Times,serif" font-size="14.00" fill="#000000">Public:</text>
<text text-anchor="start" x="8" y="-8.7" font-family="Times,serif" font-size="14.00" fill="#000000"> &#160;&#160;map: mapping(uint=&gt;address)</text>
</g>
<!-- 1&#45;&gt;0 -->
<g id="edge1" class="edge">
<title>1&#45;&gt;0</title>
<path fill="none" stroke="#000000" d="M137.1664,-100.7358C140.4375,-104.9241 143.7853,-109.2106 147.156,-113.5262"/>
<polygon fill="none" stroke="#000000" points="138.9594,-120.09 165.7006,-137.2703 155.5097,-107.1638 138.9594,-120.09"/>
</g>
<!-- 2 -->
<g id="node3" class="node">
<title>2</title>
<polygon fill="#f2f2f2" stroke="#000000" points="214,-.5 214,-100.5 409.8622,-100.5 409.8622,-.5 214,-.5"/>
<text text-anchor="middle" x="311.9311" y="-83.9" font-family="Times,serif" font-size="14.00" fill="#000000">SampleDoc2</text>
<polyline fill="none" stroke="#000000" points="214,-75.7 409.8622,-75.7 "/>
<text text-anchor="start" x="222" y="-59.1" font-family="Times,serif" font-size="14.00" fill="#000000">Internal:</text>
<text text-anchor="start" x="222" y="-42.3" font-family="Times,serif" font-size="14.00" fill="#000000"> &#160;&#160;authority: address</text>
<text text-anchor="start" x="222" y="-25.5" font-family="Times,serif" font-size="14.00" fill="#000000">Public:</text>
<text text-anchor="start" x="222" y="-8.7" font-family="Times,serif" font-size="14.00" fill="#000000"> &#160;&#160;map: mapping(uint=&gt;address)</text>
</g>
<!-- 2&#45;&gt;0 -->
<g id="edge2" class="edge">
<title>2&#45;&gt;0</title>
<path fill="none" stroke="#000000" d="M272.6958,-100.7358C269.4247,-104.9241 266.0769,-109.2106 262.7062,-113.5262"/>
<polygon fill="none" stroke="#000000" points="254.3525,-107.1638 244.1616,-137.2703 270.9028,-120.09 254.3525,-107.1638"/>
</g>
</g>
</svg>
