<?xml version="1.0" encoding="UTF-8" standalone="no"?>
<!DOCTYPE svg PUBLIC "-//W3C//DTD SVG 1.1//EN"
 "http://www.w3.org/Graphics/SVG/1.1/DTD/svg11.dtd">
<!-- Generated by graphviz version 2.40.1 (20161225.0304)
 -->
<!-- Title: UmlClassDiagram Pages: 1 -->
<svg width="202pt" height="118pt"
 viewBox="0.00 0.00 202.31 118.00" xmlns="http://www.w3.org/2000/svg" xmlns:xlink="http://www.w3.org/1999/xlink">
<g id="graph0" class="graph" transform="scale(1 1) rotate(0) translate(4 114)">
<title>UmlClassDiagram</title>
<polygon fill="#ffffff" stroke="transparent" points="-4,4 -4,-114 198.3142,-114 198.3142,4 -4,4"/>
<!-- 0 -->
<g id="node1" class="node">
<title>0</title>
<polygon fill="#f2f2f2" stroke="#000000" points="70.1571,-73.5 70.1571,-109.5 124.1571,-109.5 124.1571,-73.5 70.1571,-73.5"/>
<text text-anchor="middle" x="96.8177" y="-87.4" font-family="Times,serif" font-size="14.00" fill="#000000">Doc</text>
</g>
<!-- 1 -->
<g id="node2" class="node">
<title>1</title>
<polygon fill="#f2f2f2" stroke="#000000" points="0,-.5 0,-36.5 88.3142,-36.5 88.3142,-.5 0,-.5"/>
<text text-anchor="middle" x="44.1571" y="-14.4" font-family="Times,serif" font-size="14.00" fill="#000000">SampleDoc1</text>
</g>
<!-- 1&#45;&gt;0 -->
<g id="edge1" class="edge">
<title>1&#45;&gt;0</title>
<path fill="none" stroke="#000000" d="M57.2582,-36.5449C60.0611,-40.4056 63.1355,-44.64 66.2948,-48.9916"/>
<polygon fill="none" stroke="#000000" points="57.9008,-55.3021 84.023,-73.4096 74.8944,-42.9643 57.9008,-55.3021"/>
</g>
<!-- 2 -->
<g id="node3" class="node">
<title>2</title>
<polygon fill="#f2f2f2" stroke="#000000" points="106,-.5 106,-36.5 194.3142,-36.5 194.3142,-.5 106,-.5"/>
<text text-anchor="middle" x="150.1571" y="-14.4" font-family="Times,serif" font-size="14.00" fill="#000000">SampleDoc2</text>
</g>
<!-- 2&#45;&gt;0 -->
<g id="edge2" class="edge">
<title>2&#45;&gt;0</title>
<path fill="none" stroke="#000000" d="M137.056,-36.5449C134.2531,-40.4056 131.1787,-44.64 128.0194,-48.9916"/>
<polygon fill="none" stroke="#000000" points="119.4198,-42.9643 110.2912,-73.4096 136.4134,-55.3021 119.4198,-42.9643"/>
</g>
</g>
</svg>
