<?xml version="1.0" encoding="UTF-8" standalone="no"?>
<!DOCTYPE svg PUBLIC "-//W3C//DTD SVG 1.1//EN"
 "http://www.w3.org/Graphics/SVG/1.1/DTD/svg11.dtd">
<!-- Generated by graphviz version 2.40.1 (20161225.0304)
 -->
<!-- Title: UmlClassDiagram Pages: 1 -->
<svg width="846pt" height="246pt"
 viewBox="0.00 0.00 846.11 246.00" xmlns="http://www.w3.org/2000/svg" xmlns:xlink="http://www.w3.org/1999/xlink">
<g id="graph0" class="graph" transform="scale(1 1) rotate(0) translate(4 242)">
<title>UmlClassDiagram</title>
<polygon fill="#ffffff" stroke="transparent" points="-4,4 -4,-242 842.1084,-242 842.1084,4 -4,4"/>
<!-- 0 -->
<g id="node1" class="node">
<title>0</title>
<polygon fill="#f2f2f2" stroke="#000000" points="392.0542,-187.9 392.0542,-237.5 446.0542,-237.5 446.0542,-187.9 392.0542,-187.9"/>
<text text-anchor="middle" x="418.7148" y="-220.9" font-family="Times,serif" font-size="14.00" fill="#000000">Doc</text>
<polyline fill="none" stroke="#000000" points="392.0542,-212.7 445.3754,-212.7 "/>
<text text-anchor="middle" x="418.7148" y="-196.1" font-family="Times,serif" font-size="14.00" fill="#000000"> </text>
</g>
<!-- 1 -->
<g id="node2" class="node">
<title>1</title>
<polygon fill="#f2f2f2" stroke="#000000" points="0,-.5 0,-150.9 410.1084,-150.9 410.1084,-.5 0,-.5"/>
<text text-anchor="middle" x="205.0542" y="-134.3" font-family="Times,serif" font-size="14.00" fill="#000000">SampleDoc1</text>
<polyline fill="none" stroke="#000000" points="0,-126.1 410.1084,-126.1 "/>
<text text-anchor="start" x="8" y="-109.5" font-family="Times,serif" font-size="14.00" fill="#000000">Internal:</text>
<text text-anchor="start" x="8" y="-92.7" font-family="Times,serif" font-size="14.00" fill="#000000"> &#160;&#160;&#160;secondFunction(_value: uint, _map: mapping(uint=&gt;address)): bool</text>
<text text-anchor="start" x="8" y="-75.9" font-family="Times,serif" font-size="14.00" fill="#000000">External:</text>
<text text-anchor="start" x="8" y="-59.1" font-family="Times,serif" font-size="14.00" fill="#000000"> &#160;&#160;&#160;firstFunction(_from: address, _amount: uint): (uint, address)</text>
<text text-anchor="start" x="8" y="-42.3" font-family="Times,serif" font-size="14.00" fill="#000000">Public:</text>
<text text-anchor="start" x="8" y="-25.5" font-family="Times,serif" font-size="14.00" fill="#000000"> &#160;&#160;&#160;&lt;&lt;event&gt;&gt; EventEmitted(param: uint256)</text>
<text text-anchor="start" x="8" y="-8.7" font-family="Times,serif" font-size="14.00" fill="#000000"> &#160;&#160;&#160;&lt;&lt;modifier&gt;&gt; onlyAuthority()</text>
</g>
<!-- 1&#45;&gt;0 -->
<g id="edge1" class="edge">
<title>1&#45;&gt;0</title>
<path fill="none" stroke="#000000" d="M322.6967,-151.0132C338.0498,-160.842 353.1076,-170.4819 366.5891,-179.1125"/>
<polygon fill="none" stroke="#000000" points="361.0678,-188.0452 391.995,-195.3771 372.3903,-170.359 361.0678,-188.0452"/>
</g>
<!-- 2 -->
<g id="node3" class="node">
<title>2</title>
<polygon fill="#f2f2f2" stroke="#000000" points="428,-.5 428,-150.9 838.1084,-150.9 838.1084,-.5 428,-.5"/>
<text text-anchor="middle" x="633.0542" y="-134.3" font-family="Times,serif" font-size="14.00" fill="#000000">SampleDoc2</text>
<polyline fill="none" stroke="#000000" points="428,-126.1 838.1084,-126.1 "/>
<text text-anchor="start" x="436" y="-109.5" font-family="Times,serif" font-size="14.00" fill="#000000">Internal:</text>
<text text-anchor="start" x="436" y="-92.7" font-family="Times,serif" font-size="14.00" fill="#000000"> &#160;&#160;&#160;secondFunction(_value: uint, _map: mapping(uint=&gt;address)): bool</text>
<text text-anchor="start" x="436" y="-75.9" font-family="Times,serif" font-size="14.00" fill="#000000">External:</text>
<text text-anchor="start" x="436" y="-59.1" font-family="Times,serif" font-size="14.00" fill="#000000"> &#160;&#160;&#160;firstFunction(_from: address, _amount: uint): (uint, address)</text>
<text text-anchor="start" x="436" y="-42.3" font-family="Times,serif" font-size="14.00" fill="#000000">Public:</text>
<text text-anchor="start" x="436" y="-25.5" font-family="Times,serif" font-size="14.00" fill="#000000"> &#160;&#160;&#160;&lt;&lt;event&gt;&gt; EventEmitted(param: uint256)</text>
<text text-anchor="start" x="436" y="-8.7" font-family="Times,serif" font-size="14.00" fill="#000000"> &#160;&#160;&#160;&lt;&lt;modifier&gt;&gt; onlyAuthority()</text>
</g>
<!-- 2&#45;&gt;0 -->
<g id="edge2" class="edge">
<title>2&#45;&gt;0</title>
<path fill="none" stroke="#000000" d="M515.4117,-151.0132C500.0586,-160.842 485.0008,-170.4819 471.5193,-179.1125"/>
<polygon fill="none" stroke="#000000" points="465.7181,-170.359 446.1134,-195.3771 477.0406,-188.0452 465.7181,-170.359"/>
</g>
</g>
</svg>
